<svg xmlns="http://www.w3.org/2000/svg" width="97.754" height="164.066" viewBox="0 0 97.754 164.066">
  <g id="LED_Bulb" data-name="LED Bulb" transform="translate(-1182 -310.912)">
    <g id="Light_Bulb_Shape" data-name="Light Bulb Shape" transform="translate(1185 313.912)" fill="none">
      <path d="M40.59,154.281A14.807,14.807,0,0,1,26,139.268V109.533c0-4.157-6.843-13.242-12.653-21.271A51.6,51.6,0,0,1,0,53.262C0,25.849,2.959,0,45.877,0S91.754,25.849,91.754,53.262A51.84,51.84,0,0,1,80.364,86c-6.05,8.513-14.241,18.982-14.241,23.535v29.735a14.807,14.807,0,0,1-14.591,15.014Z" stroke="none"/>
      <path d="M 51.53257751464844 154.2814331054688 C 59.59129333496094 154.2814331054688 66.12351226806641 147.5597381591797 66.12351226806641 139.2675628662109 L 66.12351226806641 109.5325546264648 C 66.12351226806641 104.9790573120117 74.31370544433594 94.51059722900391 80.36420440673828 85.99727630615234 C 87.45555114746094 77.25918579101563 91.75446319580078 65.80425262451172 91.75446319580078 53.26205825805664 C 91.75446319580078 25.8486213684082 88.79568481445313 1.327116569882492e-05 45.87722778320313 1.327116569882492e-05 C 2.958792924880981 1.327116569882492e-05 1.03918991953833e-05 25.8486213684082 1.03918991953833e-05 53.26205825805664 C 1.03918991953833e-05 66.91860198974609 5.097358226776123 79.28694915771484 13.34598827362061 88.26153564453125 C 19.15622711181641 96.29010009765625 25.99918365478516 105.3753356933594 25.99918365478516 109.5325546264648 L 25.99918365478516 139.2675628662109 C 25.99918365478516 147.5597381591797 32.53196716308594 154.2814331054688 40.59009552001953 154.2814331054688 L 51.53257751464844 154.2814331054688 M 51.53257751464844 157.2814331054688 L 40.59009552001953 157.2814331054688 C 38.20596694946289 157.2814331054688 35.89235687255859 156.8006286621094 33.71355438232422 155.8523559570313 C 31.61635780334473 154.9396209716797 29.73490142822266 153.6350555419922 28.12146759033203 151.9748840332031 C 26.51381492614746 150.3206634521484 25.25201034545898 148.3953247070313 24.37111854553223 146.2522888183594 C 23.46077156066895 144.0376434326172 22.99918365478516 141.6876373291016 22.99918365478516 139.2675628662109 L 22.99918365478516 109.5325546264648 C 22.99918365478516 109.1346893310547 22.77166175842285 107.4722518920898 19.8440113067627 102.7855529785156 C 17.75179290771484 99.43624877929688 14.95140171051025 95.57992553710938 12.24320602416992 91.85057830810547 C 11.83152103424072 91.28364562988281 11.42199230194092 90.71968841552734 11.01719570159912 90.16062164306641 C 6.634883880615234 85.35997772216797 3.192470788955688 79.79113006591797 0.7842060327529907 73.60601043701172 C -1.726815700531006 67.15703582763672 -2.99998950958252 60.31233978271484 -2.99998950958252 53.26205825805664 C -2.99998950958252 47.02679443359375 -2.861402750015259 39.7347526550293 -1.833446145057678 32.92692565917969 C -0.7265113592147827 25.59586143493652 1.276945233345032 19.65836143493652 4.291423320770264 14.77514362335205 C 11.67501068115234 2.814295768737793 25.27783584594727 -2.99998664855957 45.87722778320313 -2.99998664855957 C 66.47663879394531 -2.99998664855957 80.0794677734375 2.814295768737793 87.46305084228516 14.77514362335205 C 90.47750854492188 19.65836143493652 92.48098754882813 25.59586143493652 93.58792114257813 32.92692565917969 C 94.61588287353516 39.7347526550293 94.75446319580078 47.02679443359375 94.75446319580078 53.26205825805664 C 94.75446319580078 59.73836135864258 93.67488098144531 66.06288146972656 91.54570770263672 72.05992889404297 C 89.49606323242188 77.83293151855469 86.53874969482422 83.13205718994141 82.75460815429688 87.81243896484375 C 81.81663513183594 89.1312255859375 80.8115234375 90.51947784423828 79.83888244628906 91.86290740966797 C 77.14079284667969 95.58951568603516 74.35083770751953 99.4429931640625 72.26673126220703 102.7893600463867 C 69.35018157958984 107.4723358154297 69.12351226806641 109.1346206665039 69.12351226806641 109.5325546264648 L 69.12351226806641 139.2675628662109 C 69.12351226806641 141.6876373291016 68.66196441650391 144.0376281738281 67.75168609619141 146.2522583007813 C 66.87083435058594 148.3952789306641 65.60907745361328 150.3206481933594 64.00146484375 151.974853515625 C 62.38805389404297 153.6350555419922 60.50659561157227 154.9396362304688 58.40933609008789 155.8523864746094 C 56.23051071166992 156.8006286621094 53.91683578491211 157.2814331054688 51.53257751464844 157.2814331054688 Z" stroke="none" fill="#fff"/>
    </g>
    <path id="Lines" d="M1.695,36.758l40.988-9.819L1.695,36.758Zm40.988-20.1L.3,26.814Zm0-10.279L.3,16.535ZM0,0H0Z" transform="translate(1209.498 423.729)" fill="none" stroke="#fff" stroke-width="3"/>
    <path id="LED" d="M9936.365,4374.1l7.307,18.023,2.882,3.442,2.794,4.256,3.406,3.985,3.93,6.249,2.969,6.521h43.314l4.979-9.238,3.668-5.706,3.318-4.437,4.541-5.8,7.065-17.3Z" transform="translate(-8750.809 -3992.59)" fill="#fff"/>
    <g id="Contact" transform="translate(1222.063 470.593)" fill="none" stroke="#fff" stroke-width="3">
      <path d="M0,0H17.544a0,0,0,0,1,0,0V0a4.386,4.386,0,0,1-4.386,4.386H4.386A4.386,4.386,0,0,1,0,0V0A0,0,0,0,1,0,0Z" stroke="none"/>
      <path d="M1.708,1.5H15.836a.208.208,0,0,1,.208.208v0a1.178,1.178,0,0,1-1.178,1.178H2.678A1.178,1.178,0,0,1,1.5,1.708v0A.208.208,0,0,1,1.708,1.5Z" fill="none"/>
    </g>
  </g>
</svg>
